<?xml version="1.0" encoding="UTF-8" standalone="no"?>
<!DOCTYPE svg PUBLIC "-//W3C//DTD SVG 1.1//EN" "http://www.w3.org/Graphics/SVG/1.1/DTD/svg11.dtd">
<svg width="100%" height="100%" viewBox="0 0 1024 600" version="1.1" xmlns="http://www.w3.org/2000/svg" xmlns:xlink="http://www.w3.org/1999/xlink" xml:space="preserve" xmlns:serif="http://www.serif.com/" style="fill-rule:evenodd;clip-rule:evenodd;stroke-linejoin:round;stroke-miterlimit:2;">
    <g transform="matrix(1,0,0,1,27.217,148.61)">
        <g transform="matrix(144,0,0,144,171.079,191.062)">
            <path d="M0.072,0.026C0.046,0.026 0.027,0.018 0.014,0.002C0.001,-0.015 -0.005,-0.035 -0.005,-0.058C-0.005,-0.073 -0.002,-0.093 0.004,-0.116C0.009,-0.139 0.017,-0.164 0.026,-0.19C0.035,-0.215 0.046,-0.239 0.059,-0.262C0.071,-0.285 0.084,-0.303 0.098,-0.318C0.112,-0.332 0.126,-0.339 0.139,-0.339C0.145,-0.339 0.15,-0.337 0.155,-0.334C0.159,-0.33 0.161,-0.324 0.161,-0.317C0.161,-0.309 0.156,-0.296 0.146,-0.278C0.135,-0.26 0.123,-0.239 0.109,-0.216C0.095,-0.193 0.083,-0.168 0.073,-0.143C0.062,-0.117 0.057,-0.092 0.057,-0.069C0.057,-0.045 0.061,-0.029 0.069,-0.021C0.077,-0.013 0.089,-0.009 0.106,-0.009C0.129,-0.009 0.153,-0.02 0.179,-0.043C0.204,-0.066 0.231,-0.105 0.26,-0.162L0.269,-0.152C0.25,-0.095 0.222,-0.051 0.186,-0.02C0.149,0.011 0.111,0.026 0.072,0.026ZM0.192,-0.432C0.181,-0.432 0.172,-0.435 0.164,-0.44C0.155,-0.445 0.151,-0.454 0.151,-0.465C0.151,-0.479 0.159,-0.491 0.176,-0.502C0.192,-0.512 0.208,-0.517 0.224,-0.517C0.234,-0.517 0.242,-0.515 0.248,-0.51C0.254,-0.505 0.257,-0.497 0.257,-0.486C0.257,-0.473 0.25,-0.461 0.237,-0.45C0.223,-0.438 0.208,-0.432 0.192,-0.432Z" style="fill:rgb(4,196,217);fill-rule:nonzero;"/>
        </g>
        <g transform="matrix(144,0,0,144,205.783,191.062)">
            <path d="M0.323,0.02C0.3,0.02 0.282,0.014 0.271,0.002C0.259,-0.01 0.253,-0.025 0.253,-0.044C0.253,-0.058 0.256,-0.073 0.261,-0.088C0.266,-0.103 0.27,-0.119 0.275,-0.136C0.28,-0.152 0.282,-0.168 0.282,-0.183C0.282,-0.202 0.278,-0.215 0.271,-0.222C0.263,-0.229 0.253,-0.232 0.242,-0.232C0.221,-0.232 0.2,-0.224 0.179,-0.207C0.158,-0.19 0.137,-0.168 0.117,-0.142C0.097,-0.115 0.078,-0.088 0.061,-0.06C0.044,-0.032 0.028,-0.007 0.015,0.015C0.004,0.015 -0.006,0.013 -0.016,0.01C-0.025,0.006 -0.033,0 -0.038,-0.007C-0.038,-0.01 -0.034,-0.021 -0.028,-0.038C-0.021,-0.055 -0.012,-0.077 -0.003,-0.102C0.006,-0.127 0.015,-0.153 0.022,-0.18C0.029,-0.207 0.033,-0.231 0.033,-0.253C0.037,-0.258 0.043,-0.262 0.052,-0.267C0.061,-0.272 0.07,-0.274 0.079,-0.274C0.097,-0.274 0.106,-0.265 0.106,-0.248C0.106,-0.237 0.103,-0.22 0.097,-0.195C0.091,-0.169 0.083,-0.143 0.074,-0.116C0.092,-0.143 0.112,-0.171 0.135,-0.198C0.157,-0.225 0.181,-0.247 0.206,-0.265C0.231,-0.283 0.257,-0.292 0.282,-0.292C0.308,-0.292 0.327,-0.283 0.339,-0.264C0.35,-0.245 0.356,-0.225 0.356,-0.202C0.356,-0.181 0.353,-0.162 0.346,-0.145C0.339,-0.127 0.333,-0.11 0.326,-0.094C0.319,-0.077 0.315,-0.061 0.315,-0.044C0.315,-0.03 0.318,-0.02 0.324,-0.015C0.329,-0.009 0.336,-0.006 0.345,-0.006C0.362,-0.006 0.378,-0.014 0.395,-0.03C0.412,-0.045 0.428,-0.065 0.444,-0.089C0.459,-0.113 0.473,-0.137 0.485,-0.162L0.496,-0.149C0.482,-0.116 0.466,-0.087 0.449,-0.062C0.432,-0.037 0.413,-0.017 0.392,-0.002C0.371,0.013 0.348,0.02 0.323,0.02Z" style="fill:rgb(4,196,217);fill-rule:nonzero;"/>
        </g>
        <g transform="matrix(144,0,0,144,272.887,191.062)">
            <path d="M0.065,0.039C0.044,0.039 0.03,0.029 0.022,0.009C0.014,-0.012 0.01,-0.038 0.01,-0.071C0.01,-0.072 0.01,-0.083 0.011,-0.103C0.012,-0.122 0.013,-0.155 0.016,-0.202C0.017,-0.22 0.019,-0.232 0.022,-0.239C0.025,-0.246 0.033,-0.249 0.048,-0.249C0.059,-0.249 0.067,-0.247 0.07,-0.243C0.073,-0.238 0.074,-0.23 0.074,-0.217C0.074,-0.195 0.073,-0.169 0.07,-0.14C0.067,-0.11 0.065,-0.082 0.065,-0.056C0.065,-0.037 0.067,-0.023 0.07,-0.014C0.073,-0.005 0.079,-0 0.088,-0C0.1,-0 0.113,-0.007 0.128,-0.021C0.143,-0.034 0.158,-0.052 0.173,-0.075C0.188,-0.097 0.203,-0.121 0.217,-0.146C0.23,-0.171 0.242,-0.196 0.253,-0.219C0.254,-0.264 0.259,-0.295 0.268,-0.31C0.276,-0.325 0.286,-0.332 0.299,-0.332C0.312,-0.332 0.321,-0.328 0.327,-0.319C0.332,-0.31 0.335,-0.301 0.335,-0.294C0.335,-0.285 0.332,-0.276 0.327,-0.267C0.321,-0.258 0.315,-0.245 0.309,-0.229C0.303,-0.213 0.3,-0.19 0.3,-0.16C0.3,-0.149 0.301,-0.138 0.303,-0.126C0.305,-0.114 0.309,-0.104 0.316,-0.096C0.323,-0.088 0.333,-0.084 0.347,-0.084C0.361,-0.084 0.375,-0.09 0.388,-0.101C0.401,-0.112 0.413,-0.131 0.426,-0.158L0.439,-0.148C0.424,-0.115 0.408,-0.092 0.391,-0.081C0.373,-0.07 0.356,-0.064 0.34,-0.064C0.318,-0.064 0.3,-0.072 0.285,-0.088C0.27,-0.104 0.261,-0.128 0.256,-0.161C0.24,-0.128 0.221,-0.097 0.2,-0.067C0.178,-0.036 0.155,-0.011 0.132,0.009C0.109,0.029 0.086,0.039 0.065,0.039Z" style="fill:rgb(4,196,217);fill-rule:nonzero;"/>
        </g>
        <g transform="matrix(144,0,0,144,331.495,191.062)">
            <path d="M0.072,0.026C0.046,0.026 0.027,0.018 0.014,0.002C0.001,-0.015 -0.005,-0.035 -0.005,-0.058C-0.005,-0.073 -0.002,-0.093 0.004,-0.116C0.009,-0.139 0.017,-0.164 0.026,-0.19C0.035,-0.215 0.046,-0.239 0.059,-0.262C0.071,-0.285 0.084,-0.303 0.098,-0.318C0.112,-0.332 0.126,-0.339 0.139,-0.339C0.145,-0.339 0.15,-0.337 0.155,-0.334C0.159,-0.33 0.161,-0.324 0.161,-0.317C0.161,-0.309 0.156,-0.296 0.146,-0.278C0.135,-0.26 0.123,-0.239 0.109,-0.216C0.095,-0.193 0.083,-0.168 0.073,-0.143C0.062,-0.117 0.057,-0.092 0.057,-0.069C0.057,-0.045 0.061,-0.029 0.069,-0.021C0.077,-0.013 0.089,-0.009 0.106,-0.009C0.129,-0.009 0.153,-0.02 0.179,-0.043C0.204,-0.066 0.231,-0.105 0.26,-0.162L0.269,-0.152C0.25,-0.095 0.222,-0.051 0.186,-0.02C0.149,0.011 0.111,0.026 0.072,0.026ZM0.192,-0.432C0.181,-0.432 0.172,-0.435 0.164,-0.44C0.155,-0.445 0.151,-0.454 0.151,-0.465C0.151,-0.479 0.159,-0.491 0.176,-0.502C0.192,-0.512 0.208,-0.517 0.224,-0.517C0.234,-0.517 0.242,-0.515 0.248,-0.51C0.254,-0.505 0.257,-0.497 0.257,-0.486C0.257,-0.473 0.25,-0.461 0.237,-0.45C0.223,-0.438 0.208,-0.432 0.192,-0.432Z" style="fill:rgb(4,196,217);fill-rule:nonzero;"/>
        </g>
        <g transform="matrix(144,0,0,144,366.199,191.062)">
            <path d="M0.085,0.046C0.056,0.046 0.034,0.038 0.019,0.021C0.004,0.004 -0.004,-0.02 -0.004,-0.053C-0.004,-0.082 0.002,-0.119 0.013,-0.162C0.024,-0.205 0.037,-0.249 0.054,-0.294C0.047,-0.295 0.041,-0.297 0.035,-0.298C0.029,-0.299 0.023,-0.3 0.018,-0.302L0.018,-0.32C0.023,-0.319 0.03,-0.319 0.037,-0.318C0.044,-0.317 0.053,-0.317 0.062,-0.316C0.076,-0.352 0.091,-0.387 0.107,-0.421C0.123,-0.454 0.139,-0.484 0.155,-0.511C0.17,-0.537 0.185,-0.558 0.2,-0.574C0.214,-0.589 0.226,-0.597 0.236,-0.597C0.241,-0.597 0.246,-0.595 0.251,-0.592C0.255,-0.588 0.257,-0.582 0.257,-0.575C0.257,-0.564 0.25,-0.545 0.236,-0.52C0.222,-0.494 0.205,-0.463 0.184,-0.428C0.163,-0.393 0.143,-0.354 0.124,-0.313L0.161,-0.313C0.183,-0.313 0.206,-0.313 0.231,-0.314C0.255,-0.315 0.279,-0.316 0.304,-0.319L0.304,-0.301C0.267,-0.297 0.235,-0.294 0.206,-0.292C0.177,-0.29 0.151,-0.289 0.128,-0.289L0.113,-0.289C0.098,-0.254 0.085,-0.217 0.074,-0.18C0.063,-0.143 0.058,-0.106 0.058,-0.071C0.058,-0.042 0.062,-0.022 0.071,-0.01C0.08,0.003 0.094,0.009 0.114,0.009C0.149,0.009 0.183,-0.006 0.216,-0.037C0.249,-0.068 0.279,-0.109 0.304,-0.162L0.317,-0.152C0.301,-0.115 0.281,-0.081 0.257,-0.051C0.232,-0.021 0.205,0.003 0.176,0.02C0.147,0.037 0.116,0.046 0.085,0.046Z" style="fill:rgb(4,196,217);fill-rule:nonzero;"/>
        </g>
        <g transform="matrix(144,0,0,144,407.239,191.062)">
            <path d="M0.108,0.044C0.067,0.044 0.037,0.033 0.017,0.011C-0.004,-0.012 -0.014,-0.039 -0.014,-0.072C-0.014,-0.102 -0.007,-0.134 0.009,-0.167C0.024,-0.2 0.044,-0.232 0.069,-0.261C0.093,-0.29 0.121,-0.314 0.151,-0.333C0.181,-0.351 0.211,-0.36 0.24,-0.36C0.255,-0.36 0.27,-0.356 0.283,-0.348C0.296,-0.34 0.302,-0.324 0.302,-0.299C0.302,-0.274 0.295,-0.25 0.28,-0.228C0.265,-0.205 0.245,-0.185 0.221,-0.168C0.196,-0.151 0.169,-0.137 0.141,-0.126C0.112,-0.115 0.083,-0.108 0.054,-0.105C0.053,-0.098 0.052,-0.092 0.051,-0.086C0.05,-0.08 0.05,-0.074 0.05,-0.069C0.05,-0.059 0.051,-0.049 0.054,-0.039C0.056,-0.029 0.06,-0.02 0.066,-0.012C0.072,-0.003 0.08,0.003 0.091,0.008C0.101,0.013 0.114,0.015 0.129,0.015C0.158,0.015 0.186,0.007 0.214,-0.01C0.242,-0.026 0.268,-0.047 0.292,-0.074C0.316,-0.101 0.336,-0.13 0.353,-0.162L0.365,-0.153C0.347,-0.113 0.324,-0.078 0.297,-0.049C0.269,-0.02 0.239,0.003 0.207,0.02C0.174,0.036 0.141,0.044 0.108,0.044ZM0.059,-0.124C0.077,-0.13 0.097,-0.139 0.12,-0.151C0.143,-0.162 0.165,-0.176 0.186,-0.192C0.206,-0.208 0.224,-0.226 0.238,-0.245C0.251,-0.264 0.258,-0.285 0.258,-0.306C0.258,-0.313 0.257,-0.319 0.254,-0.323C0.251,-0.327 0.246,-0.329 0.237,-0.329C0.221,-0.329 0.204,-0.323 0.186,-0.311C0.168,-0.298 0.151,-0.282 0.134,-0.262C0.117,-0.242 0.102,-0.22 0.089,-0.196C0.076,-0.172 0.066,-0.148 0.059,-0.124Z" style="fill:rgb(4,196,217);fill-rule:nonzero;"/>
        </g>
        <g transform="matrix(144,0,0,144,455.191,191.062)">
            <path d="M0.504,0.031C0.481,0.031 0.464,0.024 0.453,0.01C0.442,-0.005 0.437,-0.022 0.437,-0.042C0.437,-0.059 0.44,-0.075 0.445,-0.092C0.45,-0.109 0.455,-0.125 0.46,-0.141C0.464,-0.157 0.467,-0.171 0.467,-0.184C0.467,-0.197 0.464,-0.207 0.458,-0.212C0.452,-0.217 0.445,-0.22 0.438,-0.22C0.421,-0.22 0.403,-0.207 0.384,-0.181C0.364,-0.155 0.338,-0.118 0.307,-0.071C0.296,-0.055 0.287,-0.039 0.28,-0.023C0.273,-0.006 0.266,0.009 0.259,0.022C0.254,0.022 0.247,0.021 0.239,0.02C0.231,0.019 0.224,0.017 0.218,0.014C0.211,0.011 0.208,0.007 0.208,0.002C0.208,-0.003 0.211,-0.014 0.218,-0.032C0.224,-0.049 0.231,-0.07 0.24,-0.094C0.248,-0.117 0.255,-0.141 0.262,-0.166C0.268,-0.19 0.271,-0.211 0.271,-0.228C0.271,-0.239 0.269,-0.249 0.266,-0.256C0.262,-0.263 0.255,-0.266 0.246,-0.266C0.231,-0.266 0.214,-0.257 0.193,-0.24C0.172,-0.222 0.151,-0.199 0.129,-0.17C0.107,-0.141 0.086,-0.11 0.067,-0.076C0.047,-0.041 0.031,-0.007 0.019,0.027C0.013,0.027 0.006,0.026 -0.003,0.024C-0.012,0.022 -0.019,0.019 -0.026,0.016C-0.032,0.013 -0.035,0.009 -0.035,0.006C-0.035,0.002 -0.032,-0.01 -0.025,-0.03C-0.018,-0.049 -0.01,-0.073 -0.001,-0.101C0.009,-0.128 0.017,-0.156 0.024,-0.185C0.031,-0.214 0.034,-0.239 0.034,-0.261C0.038,-0.266 0.044,-0.27 0.053,-0.275C0.062,-0.28 0.071,-0.282 0.08,-0.282C0.089,-0.282 0.096,-0.28 0.101,-0.275C0.105,-0.27 0.107,-0.264 0.107,-0.256C0.107,-0.247 0.105,-0.233 0.1,-0.212C0.094,-0.191 0.088,-0.167 0.081,-0.142C0.094,-0.163 0.11,-0.185 0.127,-0.208C0.143,-0.23 0.161,-0.25 0.18,-0.269C0.199,-0.288 0.218,-0.303 0.237,-0.315C0.256,-0.326 0.274,-0.332 0.292,-0.332C0.313,-0.332 0.327,-0.325 0.335,-0.31C0.342,-0.295 0.346,-0.277 0.346,-0.256C0.346,-0.239 0.344,-0.222 0.341,-0.204C0.337,-0.185 0.333,-0.168 0.328,-0.153C0.323,-0.137 0.319,-0.124 0.315,-0.115C0.329,-0.14 0.345,-0.165 0.362,-0.189C0.379,-0.212 0.397,-0.232 0.417,-0.247C0.437,-0.262 0.458,-0.269 0.481,-0.269C0.502,-0.269 0.517,-0.263 0.526,-0.25C0.534,-0.237 0.538,-0.222 0.538,-0.205C0.538,-0.188 0.535,-0.169 0.529,-0.148C0.523,-0.127 0.517,-0.107 0.511,-0.088C0.504,-0.069 0.501,-0.052 0.501,-0.038C0.501,-0.029 0.503,-0.022 0.508,-0.015C0.512,-0.008 0.52,-0.004 0.531,-0.004C0.55,-0.004 0.567,-0.013 0.584,-0.03C0.6,-0.047 0.615,-0.067 0.629,-0.092C0.643,-0.116 0.655,-0.139 0.665,-0.162L0.677,-0.148C0.666,-0.12 0.653,-0.092 0.636,-0.065C0.619,-0.037 0.6,-0.014 0.578,0.004C0.555,0.022 0.531,0.031 0.504,0.031Z" style="fill:rgb(4,196,217);fill-rule:nonzero;"/>
        </g>
        <g transform="matrix(144,0,0,144,548.215,191.062)">
            <path d="M0.108,0.044C0.067,0.044 0.037,0.033 0.017,0.011C-0.004,-0.012 -0.014,-0.039 -0.014,-0.072C-0.014,-0.102 -0.007,-0.134 0.009,-0.167C0.024,-0.2 0.044,-0.232 0.069,-0.261C0.093,-0.29 0.121,-0.314 0.151,-0.333C0.181,-0.351 0.211,-0.36 0.24,-0.36C0.255,-0.36 0.27,-0.356 0.283,-0.348C0.296,-0.34 0.302,-0.324 0.302,-0.299C0.302,-0.274 0.295,-0.25 0.28,-0.228C0.265,-0.205 0.245,-0.185 0.221,-0.168C0.196,-0.151 0.169,-0.137 0.141,-0.126C0.112,-0.115 0.083,-0.108 0.054,-0.105C0.053,-0.098 0.052,-0.092 0.051,-0.086C0.05,-0.08 0.05,-0.074 0.05,-0.069C0.05,-0.059 0.051,-0.049 0.054,-0.039C0.056,-0.029 0.06,-0.02 0.066,-0.012C0.072,-0.003 0.08,0.003 0.091,0.008C0.101,0.013 0.114,0.015 0.129,0.015C0.158,0.015 0.186,0.007 0.214,-0.01C0.242,-0.026 0.268,-0.047 0.292,-0.074C0.316,-0.101 0.336,-0.13 0.353,-0.162L0.365,-0.153C0.347,-0.113 0.324,-0.078 0.297,-0.049C0.269,-0.02 0.239,0.003 0.207,0.02C0.174,0.036 0.141,0.044 0.108,0.044ZM0.059,-0.124C0.077,-0.13 0.097,-0.139 0.12,-0.151C0.143,-0.162 0.165,-0.176 0.186,-0.192C0.206,-0.208 0.224,-0.226 0.238,-0.245C0.251,-0.264 0.258,-0.285 0.258,-0.306C0.258,-0.313 0.257,-0.319 0.254,-0.323C0.251,-0.327 0.246,-0.329 0.237,-0.329C0.221,-0.329 0.204,-0.323 0.186,-0.311C0.168,-0.298 0.151,-0.282 0.134,-0.262C0.117,-0.242 0.102,-0.22 0.089,-0.196C0.076,-0.172 0.066,-0.148 0.059,-0.124Z" style="fill:rgb(4,196,217);fill-rule:nonzero;"/>
        </g>
        <g transform="matrix(144,0,0,144,596.167,191.062)">
            <path d="M0.04,0.01C0.031,0.01 0.024,0.008 0.018,0.004C0.011,-0.001 0.008,-0.008 0.008,-0.017C0.008,-0.024 0.011,-0.031 0.017,-0.038C0.023,-0.044 0.031,-0.049 0.04,-0.053C0.048,-0.056 0.057,-0.058 0.066,-0.058C0.074,-0.058 0.08,-0.056 0.085,-0.053C0.09,-0.05 0.092,-0.043 0.092,-0.034C0.092,-0.027 0.09,-0.021 0.085,-0.014C0.08,-0.007 0.073,-0.002 0.065,0.003C0.057,0.008 0.049,0.01 0.04,0.01Z" style="fill:rgb(4,196,217);fill-rule:nonzero;"/>
        </g>
        <g transform="matrix(144,0,0,144,626.983,191.062)">
            <path d="M0.069,0.032C0.04,0.032 0.02,0.023 0.008,0.006C-0.004,-0.012 -0.01,-0.034 -0.01,-0.059C-0.01,-0.08 -0.007,-0.101 0,-0.123C0.007,-0.145 0.016,-0.166 0.027,-0.185C0.038,-0.204 0.05,-0.22 0.064,-0.232C0.077,-0.244 0.091,-0.25 0.105,-0.25C0.108,-0.25 0.112,-0.249 0.116,-0.249C0.119,-0.247 0.123,-0.246 0.126,-0.245C0.12,-0.24 0.113,-0.23 0.105,-0.216C0.096,-0.201 0.088,-0.185 0.081,-0.167C0.074,-0.148 0.068,-0.13 0.063,-0.112C0.057,-0.094 0.055,-0.079 0.055,-0.066C0.055,-0.046 0.058,-0.032 0.065,-0.023C0.072,-0.014 0.08,-0.009 0.091,-0.009C0.105,-0.009 0.122,-0.017 0.141,-0.032C0.16,-0.047 0.179,-0.066 0.198,-0.089C0.179,-0.104 0.165,-0.125 0.155,-0.15C0.144,-0.174 0.139,-0.2 0.139,-0.226C0.139,-0.248 0.143,-0.269 0.151,-0.288C0.158,-0.307 0.169,-0.323 0.184,-0.335C0.199,-0.346 0.216,-0.352 0.237,-0.352C0.264,-0.352 0.283,-0.345 0.292,-0.33C0.301,-0.315 0.306,-0.297 0.306,-0.275C0.306,-0.249 0.3,-0.22 0.287,-0.189C0.274,-0.157 0.258,-0.126 0.239,-0.097C0.251,-0.09 0.264,-0.087 0.277,-0.087C0.288,-0.087 0.3,-0.089 0.313,-0.094C0.326,-0.098 0.339,-0.105 0.353,-0.116C0.366,-0.127 0.376,-0.141 0.384,-0.159L0.396,-0.149C0.383,-0.118 0.364,-0.096 0.34,-0.083C0.315,-0.07 0.292,-0.063 0.27,-0.063C0.261,-0.063 0.253,-0.064 0.245,-0.066C0.237,-0.067 0.229,-0.07 0.222,-0.073C0.199,-0.043 0.174,-0.018 0.148,0.002C0.121,0.022 0.094,0.032 0.069,0.032ZM0.216,-0.115C0.233,-0.14 0.247,-0.166 0.258,-0.193C0.269,-0.22 0.274,-0.245 0.274,-0.269C0.274,-0.288 0.271,-0.303 0.266,-0.312C0.26,-0.321 0.253,-0.325 0.244,-0.325C0.231,-0.325 0.217,-0.315 0.203,-0.296C0.189,-0.277 0.182,-0.252 0.182,-0.223C0.182,-0.204 0.185,-0.184 0.191,-0.165C0.196,-0.145 0.205,-0.128 0.216,-0.115Z" style="fill:rgb(4,196,217);fill-rule:nonzero;"/>
        </g>
        <g transform="matrix(144,0,0,144,679.543,191.062)">
            <path d="M0.323,0.02C0.3,0.02 0.282,0.014 0.271,0.002C0.259,-0.01 0.253,-0.025 0.253,-0.044C0.253,-0.058 0.256,-0.073 0.261,-0.088C0.266,-0.103 0.27,-0.119 0.275,-0.136C0.28,-0.152 0.282,-0.168 0.282,-0.183C0.282,-0.202 0.278,-0.215 0.271,-0.222C0.263,-0.229 0.253,-0.232 0.242,-0.232C0.221,-0.232 0.2,-0.224 0.179,-0.207C0.158,-0.19 0.137,-0.168 0.117,-0.142C0.097,-0.115 0.078,-0.088 0.061,-0.06C0.044,-0.032 0.028,-0.007 0.015,0.015C0.004,0.015 -0.006,0.013 -0.016,0.01C-0.025,0.006 -0.033,0 -0.038,-0.007C-0.038,-0.01 -0.034,-0.021 -0.028,-0.038C-0.021,-0.055 -0.012,-0.077 -0.003,-0.102C0.006,-0.127 0.015,-0.153 0.022,-0.18C0.029,-0.207 0.033,-0.231 0.033,-0.253C0.037,-0.258 0.043,-0.262 0.052,-0.267C0.061,-0.272 0.07,-0.274 0.079,-0.274C0.097,-0.274 0.106,-0.265 0.106,-0.248C0.106,-0.237 0.103,-0.22 0.097,-0.195C0.091,-0.169 0.083,-0.143 0.074,-0.116C0.092,-0.143 0.112,-0.171 0.135,-0.198C0.157,-0.225 0.181,-0.247 0.206,-0.265C0.231,-0.283 0.257,-0.292 0.282,-0.292C0.308,-0.292 0.327,-0.283 0.339,-0.264C0.35,-0.245 0.356,-0.225 0.356,-0.202C0.356,-0.181 0.353,-0.162 0.346,-0.145C0.339,-0.127 0.333,-0.11 0.326,-0.094C0.319,-0.077 0.315,-0.061 0.315,-0.044C0.315,-0.03 0.318,-0.02 0.324,-0.015C0.329,-0.009 0.336,-0.006 0.345,-0.006C0.362,-0.006 0.378,-0.014 0.395,-0.03C0.412,-0.045 0.428,-0.065 0.444,-0.089C0.459,-0.113 0.473,-0.137 0.485,-0.162L0.496,-0.149C0.482,-0.116 0.466,-0.087 0.449,-0.062C0.432,-0.037 0.413,-0.017 0.392,-0.002C0.371,0.013 0.348,0.02 0.323,0.02Z" style="fill:rgb(4,196,217);fill-rule:nonzero;"/>
        </g>
        <g transform="matrix(144,0,0,144,746.647,191.062)">
            <path d="M0.108,0.044C0.067,0.044 0.037,0.033 0.017,0.011C-0.004,-0.012 -0.014,-0.039 -0.014,-0.072C-0.014,-0.102 -0.007,-0.134 0.009,-0.167C0.024,-0.2 0.044,-0.232 0.069,-0.261C0.093,-0.29 0.121,-0.314 0.151,-0.333C0.181,-0.351 0.211,-0.36 0.24,-0.36C0.255,-0.36 0.27,-0.356 0.283,-0.348C0.296,-0.34 0.302,-0.324 0.302,-0.299C0.302,-0.274 0.295,-0.25 0.28,-0.228C0.265,-0.205 0.245,-0.185 0.221,-0.168C0.196,-0.151 0.169,-0.137 0.141,-0.126C0.112,-0.115 0.083,-0.108 0.054,-0.105C0.053,-0.098 0.052,-0.092 0.051,-0.086C0.05,-0.08 0.05,-0.074 0.05,-0.069C0.05,-0.059 0.051,-0.049 0.054,-0.039C0.056,-0.029 0.06,-0.02 0.066,-0.012C0.072,-0.003 0.08,0.003 0.091,0.008C0.101,0.013 0.114,0.015 0.129,0.015C0.158,0.015 0.186,0.007 0.214,-0.01C0.242,-0.026 0.268,-0.047 0.292,-0.074C0.316,-0.101 0.336,-0.13 0.353,-0.162L0.365,-0.153C0.347,-0.113 0.324,-0.078 0.297,-0.049C0.269,-0.02 0.239,0.003 0.207,0.02C0.174,0.036 0.141,0.044 0.108,0.044ZM0.059,-0.124C0.077,-0.13 0.097,-0.139 0.12,-0.151C0.143,-0.162 0.165,-0.176 0.186,-0.192C0.206,-0.208 0.224,-0.226 0.238,-0.245C0.251,-0.264 0.258,-0.285 0.258,-0.306C0.258,-0.313 0.257,-0.319 0.254,-0.323C0.251,-0.327 0.246,-0.329 0.237,-0.329C0.221,-0.329 0.204,-0.323 0.186,-0.311C0.168,-0.298 0.151,-0.282 0.134,-0.262C0.117,-0.242 0.102,-0.22 0.089,-0.196C0.076,-0.172 0.066,-0.148 0.059,-0.124Z" style="fill:rgb(4,196,217);fill-rule:nonzero;"/>
        </g>
    </g>
</svg>
